<svg width="32" height="32" viewBox="0 0 32 32" fill="none" xmlns="http://www.w3.org/2000/svg">
<g clip-path="url(#clip0_1_1460)">
<path d="M18.6667 22C19.1803 22.0003 19.6742 22.1981 20.0459 22.5525C20.4176 22.907 20.6387 23.3909 20.6634 23.9039C20.6881 24.4169 20.5145 24.9198 20.1785 25.3083C19.8425 25.6968 19.3699 25.9411 18.8587 25.9907L18.6667 26H13.3334C12.8198 25.9997 12.3259 25.8019 11.9542 25.4475C11.5825 25.093 11.3614 24.6091 11.3367 24.0961C11.312 23.5831 11.4856 23.0802 11.8216 22.6917C12.1576 22.3032 12.6301 22.0589 13.1414 22.0093L13.3334 22H18.6667ZM22.6667 14C23.1971 14 23.7058 14.2107 24.0809 14.5858C24.456 14.9609 24.6667 15.4696 24.6667 16C24.6667 16.5304 24.456 17.0391 24.0809 17.4142C23.7058 17.7893 23.1971 18 22.6667 18H9.33337C8.80294 18 8.29423 17.7893 7.91916 17.4142C7.54409 17.0391 7.33337 16.5304 7.33337 16C7.33337 15.4696 7.54409 14.9609 7.91916 14.5858C8.29423 14.2107 8.80294 14 9.33337 14H22.6667ZM26.6667 6C27.1971 6 27.7058 6.21071 28.0809 6.58579C28.456 6.96086 28.6667 7.46957 28.6667 8C28.6667 8.53043 28.456 9.03914 28.0809 9.41421C27.7058 9.78929 27.1971 10 26.6667 10H5.33337C4.80294 10 4.29423 9.78929 3.91916 9.41421C3.54409 9.03914 3.33337 8.53043 3.33337 8C3.33337 7.46957 3.54409 6.96086 3.91916 6.58579C4.29423 6.21071 4.80294 6 5.33337 6H26.6667Z" fill="#D9D9D9"/>
</g>
<defs>
<clipPath id="clip0_1_1460">
<rect width="32" height="32" fill="white"/>
</clipPath>
</defs>
</svg>
